<svg xmlns="http://www.w3.org/2000/svg" xmlns:xlink="http://www.w3.org/1999/xlink" width="1920" zoomAndPan="magnify" viewBox="0 0 1440 809.999993" height="1080" preserveAspectRatio="xMidYMid meet" version="1.0"><defs><clipPath id="b8d0b03e6e"><path d="M 245.292969 443 L 320 443 L 320 518 L 245.292969 518 Z M 245.292969 443 " clip-rule="nonzero"/></clipPath><clipPath id="2a7389aca6"><path d="M 676 185.820312 L 679 185.820312 L 679 562.320312 L 676 562.320312 Z M 676 185.820312 " clip-rule="nonzero"/></clipPath><clipPath id="0bf2b9af00"><path d="M 1095 456 L 1145.292969 456 L 1145.292969 516 L 1095 516 Z M 1095 456 " clip-rule="nonzero"/></clipPath></defs><rect x="-144" width="1728" fill="#ffffff" y="-80.999999" height="971.999992" fill-opacity="1"/><rect x="-144" width="1728" fill="#081922" y="-80.999999" height="971.999992" fill-opacity="1"/><path fill="#ffffff" d="M 539.078125 517.421875 L 533.421875 517.421875 L 560.378906 481.59375 L 535.808594 444.777344 L 548.582031 444.777344 L 567.132812 472.679688 L 588.070312 444.777344 L 593.757812 444.777344 L 569.738281 476.695312 L 596.960938 517.421875 L 584.160156 517.421875 L 563 485.613281 Z M 539.078125 517.421875 " fill-opacity="1" fill-rule="nonzero"/><path fill="#ffffff" d="M 386.851562 444.9375 L 382.296875 444.9375 C 382.296875 444.9375 366.699219 444.921875 366.699219 444.921875 L 366.699219 444.953125 L 359.898438 444.953125 L 359.898438 517.3125 L 372.355469 517.3125 L 372.355469 484.921875 L 388.46875 484.921875 C 399.636719 484.921875 409.519531 475.894531 409.519531 464.921875 C 409.519531 453.949219 398.632812 444.9375 386.851562 444.9375 Z M 381.464844 480.308594 C 381.464844 480.308594 372.355469 480.308594 372.355469 480.308594 L 372.355469 449.285156 L 381.464844 449.285156 C 390.023438 449.394531 396.9375 455.816406 396.9375 464.75 C 396.9375 473.683594 390.023438 480.214844 381.464844 480.308594 Z M 381.464844 480.308594 " fill-opacity="1" fill-rule="nonzero"/><g clip-path="url(#b8d0b03e6e)"><path fill="#ffffff" d="M 307.214844 517.421875 L 319.636719 517.421875 L 285.410156 443.113281 L 282.378906 443.113281 L 245.292969 517.421875 L 251.402344 517.421875 L 265.179688 490.246094 L 294.695312 490.246094 L 307.195312 517.421875 Z M 267.535156 485.613281 L 280.652344 459.757812 L 292.558594 485.613281 Z M 267.535156 485.613281 " fill-opacity="1" fill-rule="nonzero"/></g><path fill="#ffffff" d="M 499.523438 449.472656 L 499.523438 444.777344 L 449.023438 444.777344 L 449.023438 517.421875 L 499.523438 517.421875 L 499.523438 512.726562 L 461.230469 512.726562 L 461.230469 485.144531 L 487.773438 485.144531 L 487.773438 479.789062 L 461.230469 479.789062 L 461.230469 449.472656 Z M 499.523438 449.472656 " fill-opacity="1" fill-rule="nonzero"/><path fill="#e87722" d="M 545.046875 385.761719 C 545.046875 386.6875 545 387.605469 544.910156 388.523438 C 544.820312 389.441406 544.683594 390.351562 544.503906 391.257812 C 544.324219 392.164062 544.101562 393.054688 543.832031 393.9375 C 543.566406 394.820312 543.253906 395.6875 542.902344 396.542969 C 542.546875 397.394531 542.152344 398.226562 541.71875 399.039062 C 541.285156 399.855469 540.808594 400.644531 540.296875 401.410156 C 539.785156 402.179688 539.234375 402.917969 538.648438 403.632812 C 538.0625 404.34375 537.445312 405.027344 536.792969 405.679688 C 536.140625 406.332031 535.457031 406.949219 534.742188 407.535156 C 534.03125 408.121094 533.289062 408.667969 532.523438 409.183594 C 531.753906 409.695312 530.964844 410.167969 530.148438 410.601562 C 529.335938 411.039062 528.503906 411.433594 527.648438 411.785156 C 526.796875 412.136719 525.929688 412.449219 525.046875 412.714844 C 524.164062 412.984375 523.269531 413.207031 522.363281 413.386719 C 521.457031 413.566406 520.546875 413.703125 519.628906 413.792969 C 518.710938 413.882812 517.789062 413.929688 516.867188 413.929688 C 515.941406 413.929688 515.023438 413.882812 514.105469 413.792969 C 513.1875 413.703125 512.273438 413.566406 511.367188 413.386719 C 510.464844 413.207031 509.570312 412.984375 508.6875 412.714844 C 507.804688 412.449219 506.933594 412.136719 506.082031 411.785156 C 505.230469 411.433594 504.394531 411.039062 503.582031 410.601562 C 502.769531 410.167969 501.976562 409.695312 501.210938 409.183594 C 500.441406 408.667969 499.703125 408.121094 498.988281 407.535156 C 498.277344 406.949219 497.59375 406.332031 496.941406 405.679688 C 496.289062 405.027344 495.667969 404.34375 495.082031 403.632812 C 494.496094 402.917969 493.949219 402.179688 493.433594 401.410156 C 492.921875 400.644531 492.449219 399.855469 492.015625 399.039062 C 491.578125 398.226562 491.183594 397.394531 490.832031 396.542969 C 490.476562 395.6875 490.167969 394.820312 489.898438 393.9375 C 489.632812 393.054688 489.40625 392.164062 489.226562 391.257812 C 489.046875 390.351562 488.914062 389.441406 488.820312 388.523438 C 488.730469 387.605469 488.6875 386.6875 488.6875 385.761719 C 488.6875 384.839844 488.730469 383.921875 488.820312 383.003906 C 488.914062 382.085938 489.046875 381.171875 489.226562 380.269531 C 489.40625 379.363281 489.632812 378.46875 489.898438 377.585938 C 490.167969 376.703125 490.476562 375.835938 490.832031 374.984375 C 491.183594 374.132812 491.578125 373.300781 492.015625 372.484375 C 492.449219 371.671875 492.921875 370.882812 493.433594 370.113281 C 493.949219 369.347656 494.496094 368.609375 495.082031 367.894531 C 495.667969 367.183594 496.289062 366.5 496.941406 365.847656 C 497.59375 365.195312 498.277344 364.574219 498.988281 363.992188 C 499.703125 363.40625 500.441406 362.855469 501.210938 362.34375 C 501.976562 361.832031 502.769531 361.359375 503.582031 360.921875 C 504.394531 360.488281 505.230469 360.09375 506.082031 359.742188 C 506.933594 359.386719 507.804688 359.078125 508.6875 358.808594 C 509.570312 358.542969 510.464844 358.320312 511.367188 358.136719 C 512.273438 357.957031 513.1875 357.824219 514.105469 357.734375 C 515.023438 357.644531 515.941406 357.597656 516.867188 357.597656 C 517.789062 357.597656 518.710938 357.644531 519.628906 357.734375 C 520.546875 357.824219 521.457031 357.957031 522.363281 358.136719 C 523.269531 358.320312 524.164062 358.542969 525.046875 358.808594 C 525.929688 359.078125 526.796875 359.386719 527.648438 359.742188 C 528.503906 360.09375 529.335938 360.488281 530.148438 360.921875 C 530.964844 361.359375 531.753906 361.832031 532.523438 362.34375 C 533.289062 362.855469 534.03125 363.40625 534.742188 363.992188 C 535.457031 364.574219 536.140625 365.195312 536.792969 365.847656 C 537.445312 366.5 538.0625 367.183594 538.648438 367.894531 C 539.234375 368.609375 539.785156 369.347656 540.296875 370.113281 C 540.808594 370.882812 541.285156 371.671875 541.71875 372.484375 C 542.152344 373.300781 542.546875 374.132812 542.902344 374.984375 C 543.253906 375.835938 543.566406 376.703125 543.832031 377.585938 C 544.101562 378.46875 544.324219 379.363281 544.503906 380.269531 C 544.683594 381.171875 544.820312 382.085938 544.910156 383.003906 C 545 383.921875 545.046875 384.839844 545.046875 385.761719 Z M 545.046875 385.761719 " fill-opacity="1" fill-rule="nonzero"/><path fill="#e87722" d="M 484.367188 277.417969 C 470.277344 270.636719 453.1875 276.617188 446.402344 290.699219 L 406.675781 373.109375 C 399.890625 387.191406 405.875 404.273438 419.964844 411.054688 C 434.054688 417.839844 451.144531 411.855469 457.929688 397.773438 L 497.65625 315.363281 C 504.441406 301.28125 498.457031 284.199219 484.367188 277.417969 Z M 484.367188 277.417969 " fill-opacity="1" fill-rule="nonzero"/><path fill="#e87722" d="M 435.6875 191.507812 C 449.574219 198.382812 455.308594 215.371094 448.425781 229.25 L 364.640625 398.308594 C 357.761719 412.1875 340.765625 417.917969 326.878906 411.039062 C 312.992188 404.164062 307.261719 387.175781 314.140625 373.296875 L 397.925781 204.242188 C 404.804688 190.363281 421.800781 184.632812 435.6875 191.507812 Z M 435.6875 191.507812 " fill-opacity="1" fill-rule="nonzero"/><g clip-path="url(#2a7389aca6)"><path stroke-linecap="butt" transform="matrix(1.57079, 0, 0, 1.569991, 245.292356, 185.510737)" fill="none" stroke-linejoin="miter" d="M 275.110729 0.000625279 L 275.110729 314.370901 " stroke="#ffffff" stroke-width="1.44" stroke-opacity="1" stroke-miterlimit="10"/></g><path fill="#ffffff" d="M 902.257812 438.34375 L 902.257812 379.230469 L 940.996094 379.230469 L 940.996094 389.796875 L 914.636719 389.796875 L 914.636719 405.199219 L 938.703125 405.199219 L 938.703125 415.308594 L 914.636719 415.308594 L 914.636719 438.328125 L 902.257812 438.328125 Z M 902.257812 438.34375 " fill-opacity="1" fill-rule="nonzero"/><path fill="#ffffff" d="M 969.128906 416.675781 C 969.128906 418.527344 969.394531 420.207031 969.945312 421.714844 C 970.496094 423.222656 971.296875 424.496094 972.347656 425.5625 C 973.402344 426.628906 974.703125 427.445312 976.242188 428.027344 C 977.785156 428.609375 979.542969 428.890625 981.507812 428.890625 C 983.46875 428.890625 985.277344 428.609375 986.816406 428.027344 C 988.355469 427.445312 989.660156 426.628906 990.710938 425.5625 C 991.761719 424.496094 992.5625 423.207031 993.113281 421.714844 C 993.664062 420.207031 993.929688 418.527344 993.929688 416.675781 L 993.929688 379.230469 L 1006.308594 379.230469 L 1006.308594 417.949219 C 1006.308594 421.230469 1005.726562 424.210938 1004.566406 426.898438 C 1003.402344 429.582031 1001.738281 431.890625 999.585938 433.820312 C 997.433594 435.75 994.828125 437.226562 991.777344 438.28125 C 988.730469 439.332031 985.308594 439.847656 981.507812 439.847656 C 977.703125 439.847656 974.3125 439.316406 971.265625 438.28125 C 968.203125 437.226562 965.59375 435.734375 963.457031 433.820312 C 961.304688 431.890625 959.65625 429.582031 958.492188 426.898438 C 957.332031 424.210938 956.75 421.230469 956.75 417.949219 L 956.75 379.230469 L 969.128906 379.230469 Z M 969.128906 416.675781 " fill-opacity="1" fill-rule="nonzero"/><path fill="#ffffff" d="M 1024.921875 438.34375 L 1024.921875 379.230469 L 1035.257812 379.230469 L 1062.464844 416.0625 L 1063.203125 416.0625 L 1063.203125 379.230469 L 1075.046875 379.230469 L 1075.046875 438.34375 L 1064.804688 438.34375 L 1037.503906 401.351562 L 1036.765625 401.351562 L 1036.765625 438.34375 Z M 1024.921875 438.34375 " fill-opacity="1" fill-rule="nonzero"/><path fill="#ffffff" d="M 1116.859375 379.199219 C 1121.257812 379.199219 1125.1875 379.84375 1128.625 381.148438 C 1132.066406 382.449219 1134.972656 384.351562 1137.328125 386.847656 C 1139.683594 389.34375 1141.492188 392.402344 1142.730469 396.015625 C 1143.972656 399.640625 1144.601562 403.753906 1144.601562 408.371094 C 1144.601562 412.988281 1143.988281 417.445312 1142.761719 421.167969 C 1141.539062 424.886719 1139.730469 428.027344 1137.375 430.570312 C 1135.019531 433.113281 1132.113281 435.046875 1128.671875 436.363281 C 1125.234375 437.683594 1121.289062 438.359375 1116.875 438.359375 L 1093.597656 438.359375 L 1093.597656 379.199219 L 1116.875 379.199219 Z M 1105.960938 427.777344 L 1114.898438 427.777344 C 1120.394531 427.777344 1124.605469 426.144531 1127.558594 422.878906 C 1130.511719 419.613281 1131.988281 414.839844 1131.988281 408.558594 C 1131.988281 405.578125 1131.59375 402.921875 1130.824219 400.597656 C 1130.054688 398.277344 1128.925781 396.296875 1127.464844 394.679688 C 1126.003906 393.0625 1124.210938 391.855469 1122.089844 391.007812 C 1119.972656 390.175781 1117.582031 389.75 1114.898438 389.75 L 1105.960938 389.75 Z M 1105.960938 427.777344 " fill-opacity="1" fill-rule="nonzero"/><path fill="#ffffff" d="M 914.636719 515.789062 L 902.257812 515.789062 L 902.257812 456.679688 L 927.09375 456.679688 C 930.34375 456.679688 933.265625 457.121094 935.859375 457.984375 C 938.449219 458.863281 940.648438 460.117188 942.457031 461.75 C 944.261719 463.382812 945.644531 465.378906 946.617188 467.714844 C 947.59375 470.054688 948.078125 472.695312 948.078125 475.644531 C 948.078125 477.527344 947.84375 479.335938 947.355469 481.078125 C 946.886719 482.804688 946.179688 484.40625 945.269531 485.867188 C 944.355469 487.324219 943.226562 488.613281 941.890625 489.742188 C 940.554688 490.859375 939.03125 491.769531 937.335938 492.445312 L 949.792969 515.789062 L 935.78125 515.789062 L 924.753906 494.359375 L 914.636719 494.359375 Z M 914.636719 484.859375 L 925.492188 484.859375 C 928.632812 484.859375 931.066406 484.074219 932.78125 482.492188 C 934.507812 480.90625 935.355469 478.675781 935.355469 475.816406 C 935.355469 474.421875 935.121094 473.164062 934.664062 472.035156 C 934.195312 470.902344 933.535156 469.945312 932.671875 469.144531 C 931.804688 468.34375 930.753906 467.75 929.511719 467.324219 C 928.273438 466.898438 926.890625 466.695312 925.351562 466.695312 L 914.605469 466.695312 L 914.605469 484.875 Z M 914.636719 484.859375 " fill-opacity="1" fill-rule="nonzero"/><path fill="#ffffff" d="M 988.496094 455.15625 C 992.863281 455.15625 996.804688 455.878906 1000.292969 457.324219 C 1003.796875 458.769531 1006.765625 460.824219 1009.230469 463.507812 C 1011.695312 466.179688 1013.582031 469.445312 1014.902344 473.273438 C 1016.21875 477.105469 1016.894531 481.421875 1016.894531 486.195312 C 1016.894531 490.96875 1016.234375 495.316406 1014.933594 499.164062 C 1013.628906 503.011719 1011.726562 506.261719 1009.277344 508.929688 C 1006.8125 511.597656 1003.828125 513.671875 1000.324219 515.113281 C 996.804688 516.558594 992.878906 517.28125 988.496094 517.28125 C 984.113281 517.28125 980.140625 516.558594 976.636719 515.113281 C 973.117188 513.671875 970.132812 511.613281 967.683594 508.929688 C 965.21875 506.261719 963.332031 502.996094 962.011719 499.164062 C 960.691406 495.332031 960.019531 491 960.019531 486.195312 C 960.019531 481.390625 960.691406 477.105469 962.027344 473.273438 C 963.363281 469.445312 965.28125 466.179688 967.746094 463.476562 C 970.210938 460.792969 973.210938 458.71875 976.714844 457.292969 C 980.21875 455.863281 984.160156 455.140625 988.496094 455.140625 Z M 988.496094 466.019531 C 986.09375 466.019531 983.925781 466.492188 981.976562 467.433594 C 980.03125 468.375 978.378906 469.726562 976.996094 471.46875 C 975.617188 473.210938 974.546875 475.347656 973.792969 477.84375 C 973.039062 480.339844 972.664062 483.132812 972.664062 486.226562 C 972.664062 489.320312 973.023438 492.097656 973.761719 494.578125 C 974.5 497.058594 975.550781 499.195312 976.917969 500.953125 C 978.285156 502.710938 979.949219 504.078125 981.898438 505.035156 C 983.847656 505.992188 986.046875 506.464844 988.480469 506.464844 C 990.914062 506.464844 993.050781 505.992188 995 505.035156 C 996.929688 504.078125 998.597656 502.726562 999.980469 500.953125 C 1001.359375 499.195312 1002.414062 497.074219 1003.152344 494.578125 C 1003.890625 492.082031 1004.25 489.304688 1004.25 486.226562 C 1004.25 483.148438 1003.890625 480.355469 1003.152344 477.84375 C 1002.414062 475.332031 1001.359375 473.226562 999.980469 471.46875 C 998.597656 469.726562 996.929688 468.375 995 467.433594 C 993.050781 466.492188 990.882812 466.019531 988.480469 466.019531 Z M 988.496094 466.019531 " fill-opacity="1" fill-rule="nonzero"/><path fill="#ffffff" d="M 1055.851562 517.296875 C 1051.5625 517.296875 1047.699219 516.574219 1044.273438 515.144531 C 1040.851562 513.71875 1037.929688 511.660156 1035.542969 508.976562 C 1033.152344 506.308594 1031.316406 503.042969 1030.027344 499.179688 C 1028.738281 495.332031 1028.09375 491 1028.09375 486.195312 C 1028.09375 481.390625 1028.738281 477.074219 1030.027344 473.226562 C 1031.316406 469.398438 1033.152344 466.132812 1035.542969 463.460938 C 1037.929688 460.792969 1040.835938 458.734375 1044.273438 457.292969 C 1047.699219 455.863281 1051.5625 455.140625 1055.851562 455.140625 C 1059.355469 455.140625 1062.621094 455.691406 1065.652344 456.804688 C 1068.683594 457.917969 1071.339844 459.441406 1073.601562 461.421875 C 1075.863281 463.382812 1077.703125 465.722656 1079.097656 468.421875 C 1080.496094 471.125 1081.296875 474.089844 1081.519531 477.308594 L 1069.46875 477.308594 C 1069.171875 475.613281 1068.621094 474.074219 1067.835938 472.679688 C 1067.050781 471.28125 1066.0625 470.101562 1064.867188 469.113281 C 1063.675781 468.125 1062.324219 467.371094 1060.785156 466.835938 C 1059.261719 466.304688 1057.609375 466.035156 1055.867188 466.035156 C 1053.542969 466.035156 1051.453125 466.507812 1049.601562 467.433594 C 1047.746094 468.359375 1046.160156 469.695312 1044.839844 471.453125 C 1043.519531 473.210938 1042.53125 475.316406 1041.824219 477.796875 C 1041.117188 480.277344 1040.773438 483.085938 1040.773438 486.195312 C 1040.773438 489.304688 1041.117188 492.113281 1041.824219 494.609375 C 1042.515625 497.105469 1043.519531 499.226562 1044.839844 500.953125 C 1046.160156 502.679688 1047.730469 504.03125 1049.601562 504.972656 C 1051.453125 505.914062 1053.558594 506.386719 1055.914062 506.386719 C 1057.6875 506.386719 1059.339844 506.132812 1060.878906 505.632812 C 1062.402344 505.128906 1063.753906 504.40625 1064.929688 503.480469 C 1066.109375 502.554688 1067.082031 501.441406 1067.882812 500.121094 C 1068.667969 498.816406 1069.21875 497.34375 1069.515625 495.695312 L 1081.566406 495.695312 C 1081.3125 498.898438 1080.511719 501.816406 1079.128906 504.453125 C 1077.75 507.109375 1075.925781 509.382812 1073.679688 511.269531 C 1071.433594 513.152344 1068.777344 514.644531 1065.746094 515.695312 C 1062.714844 516.746094 1059.417969 517.265625 1055.867188 517.265625 Z M 1055.851562 517.296875 " fill-opacity="1" fill-rule="nonzero"/><g clip-path="url(#0bf2b9af00)"><path fill="#ffffff" d="M 1095.042969 515.789062 L 1095.042969 456.679688 L 1107.421875 456.679688 L 1107.421875 483.023438 L 1108.160156 483.023438 L 1130.007812 456.679688 L 1143.785156 456.679688 L 1122.234375 482.617188 L 1145.308594 515.789062 L 1130.464844 515.789062 L 1113.296875 491.046875 L 1107.4375 497.96875 L 1107.4375 515.789062 Z M 1095.042969 515.789062 " fill-opacity="1" fill-rule="nonzero"/></g><path fill="#e87722" d="M 758.203125 187.519531 L 806.253906 187.519531 L 806.253906 235.546875 L 758.203125 235.546875 Z M 758.203125 187.519531 " fill-opacity="1" fill-rule="nonzero"/><path fill="#e87722" d="M 854.289062 187.519531 L 902.339844 187.519531 L 902.339844 235.546875 L 854.289062 235.546875 Z M 854.289062 187.519531 " fill-opacity="1" fill-rule="nonzero"/><path fill="#e87722" d="M 950.371094 187.519531 L 998.421875 187.519531 L 998.421875 235.546875 L 950.371094 235.546875 Z M 950.371094 187.519531 " fill-opacity="1" fill-rule="nonzero"/><path fill="#faba89" d="M 758.203125 283.414062 L 806.253906 283.414062 L 806.253906 331.441406 L 758.203125 331.441406 Z M 758.203125 283.414062 " fill-opacity="1" fill-rule="nonzero"/><path fill="#faba89" d="M 854.289062 283.414062 L 902.339844 283.414062 L 902.339844 331.441406 L 854.289062 331.441406 Z M 854.289062 283.414062 " fill-opacity="1" fill-rule="nonzero"/><path fill="#fddabe" d="M 758.203125 379.308594 L 806.253906 379.308594 L 806.253906 427.335938 L 758.203125 427.335938 Z M 758.203125 379.308594 " fill-opacity="1" fill-rule="nonzero"/></svg>